<?xml version="1.0" encoding="utf-8"?>
<!-- Generator: Adobe Illustrator 24.0.0, SVG Export Plug-In . SVG Version: 6.00 Build 0)  -->
<svg version="1.1" id="Layer_1" xmlns="http://www.w3.org/2000/svg" xmlns:xlink="http://www.w3.org/1999/xlink" x="0px" y="0px"
	 viewBox="0 0 221.039 45" style="enable-background:new 0 0 221.039 45;" xml:space="preserve">
<style type="text/css">
	.st0{fill:#B5C4C6;}
	.st1{fill:#3085C6;}
</style>
<g>
	<g>
		<path class="st0" d="M20.886,0h4.99l-1.958,10.629L31.453,0h4.902l-4.917,12.098l-4.067-0.018l4.236-10.412l-7.512,10.43h-4.597
			l1.754-10.466L16.282,12.08l-1.184,0.018L20.886,0z"/>
		<path class="st0" d="M36.712,2.793h3.355l-3.274,7.4c-0.61,1.378,2.173,1.342,3.263,1.342c0.436,0,0.879-0.018,1.345-0.036
			l0.208-0.471c-0.139,0.018-0.277,0.036-0.386,0.036c-0.61,0-1.13-0.254-0.881-0.816l3.298-7.455h3.355l-4.069,9.196
			c-1.696,0.091-3.408,0.218-5.064,0.218c-1.699,0-5.34,0.054-4.426-2.013L36.712,2.793z"/>
		<path class="st0" d="M48.082,9.305c-0.129,0.29-0.221,0.599-0.342,0.871c-0.31,0.798-0.446,1.451,0.665,1.451
			c1.482,0,2.239-0.236,2.833-1.578c0.12-0.272,0.227-0.562,0.347-0.834c0.123-0.327,0.291-0.707,0.224-0.998
			c-0.141-0.617-2.096-0.581-2.829-0.599c-1.654-0.054-2.927,0.163-2.227-1.614c0.155-0.399,0.31-0.798,0.478-1.179
			c0.626-1.415,1.48-1.868,3.194-2.05c0.824-0.091,1.631-0.091,2.437-0.091h0.196c1.446-0.018,2.868,0.018,4.15,0.272L56.619,3.7
			c-0.729-0.272-1.986-0.435-2.901-0.435c-1.961,0-2.629,0.526-3.312,2.068c-0.57,1.288-0.266,1.487,1.221,1.523
			c0.798,0.018,1.618,0.036,2.408,0.072c1.61,0.054,1.619,0.526,1.232,1.796c-0.051,0.163-0.109,0.345-0.181,0.508
			c-0.056,0.127-0.134,0.254-0.19,0.381c-1.051,2.031-1.445,2.231-3.93,2.43c-0.656,0.054-1.296,0.073-1.927,0.073
			c-0.872,0-3.225,0-3.956-0.218c-0.675-0.199-0.885-0.363-0.624-1.052c0.112-0.254,0.195-0.49,0.299-0.726
			c0.128-0.29,0.271-0.562,0.421-0.852L48.082,9.305z"/>
		<path class="st0" d="M59.59,1.324h3.355l-0.65,1.469h2.004l-0.265,0.598c-0.087,0-0.166-0.018-0.231-0.018
			c-1.286,0-1.926,0.363-2.407,1.451l-3.218,7.273h-3.355L59.59,1.324z"/>
		<path class="st0" d="M70.599,4.081c0.273-0.617-0.228-0.961-0.904-0.961c-1.939,0-2.164,1.197-2.701,2.412l-3.287,0.091
			c0.087-0.344,0.188-0.671,0.341-1.016c0.497-1.124,0.914-1.523,2.385-1.796c1.207-0.218,2.52-0.181,3.654-0.181
			c1.264,0,4.586-0.073,3.896,1.487l-3.483,7.872c-2.096,0.109-4.208,0.254-6.257,0.254c-2.985,0-3.964-0.2-2.752-2.939
			c0.16-0.363,0.343-0.726,0.539-1.07c0.65-1.124,0.981-1.578,2.49-1.886c1.574-0.308,3.798-0.163,5.149-0.163L70.599,4.081z
			 M68.62,6.584c-2.658,0-3.061,0.762-3.927,2.721c-0.722,1.632-0.815,1.941,1.079,2.14c0.398,0.036,0.812,0.036,1.226,0.036
			c0.654,0,1.315-0.018,1.993-0.072l0.185-0.417c-0.125,0.036-0.299,0.036-0.43,0.036c-0.589,0-1.088-0.2-0.84-0.762l1.605-3.628
			C69.222,6.603,68.925,6.584,68.62,6.584z"/>
		<path class="st0" d="M75.822,2.902c1.693-0.182,3.43-0.218,5.064-0.218c1.699,0,5.34-0.054,4.426,2.013l-3.274,7.4h-3.355
			l3.274-7.4c0.602-1.36-2.1-1.36-3.189-1.36c-0.458,0-0.945,0.018-1.432,0.036l-0.209,0.472c0.109,0,0.204-0.018,0.313-0.018
			c0.61,0,1.241,0.2,0.968,0.816l-3.298,7.455h-3.355L75.822,2.902z"/>
		<path class="st0" d="M93.858,11.754c-0.265,0.599-0.378,1.052-1.017,1.56c-1.367,1.07-4.151,0.961-5.48,0.961
			c-0.436,0-0.864-0.018-1.277-0.018c-0.725-0.036-2.571,0-2.696-0.653c-0.068-0.29,0.109-0.689,0.253-1.016l0.393-0.889h3.421
			c-0.578,1.306-0.978,2.013,0.896,2.013c1.416,0,1.781-1.07,2.182-1.977l0.337-0.762h-1.46c-5.382,0-5.678,0.127-3.672-4.408
			c1.308-2.957,2.185-3.954,6.02-3.954c1.874,0,4.244,0.109,6.016,0.29L93.858,11.754z M94.585,3.265
			c-0.501,0-1.032,0.018-1.557,0.073c-1.494,0.127-2.497,0.326-3.157,1.669c-0.311,0.653-0.635,1.288-0.924,1.941l-0.12,0.272
			c-0.337,0.762-1.249,2.575-0.521,3.047c0.326,0.199,0.876,0.236,1.34,0.272c0.131,0,0.253,0.018,0.384,0.018
			c0.327,0,0.684-0.018,1.048-0.054l2.488-5.623c0.313-0.707,1.305-1.324,2.088-1.124l0.184-0.417
			C95.427,3.283,95.021,3.265,94.585,3.265z"/>
	</g>
	<g>
		<path class="st1" d="M13.641,16.656h25.063l-0.255,2.04c-3.66-0.297-11.336-0.637-15.306-0.637c-1.51,0-3.04,0.042-4.647,0.127
			l-0.532,1.104c2.525,0.213,4.926-0.127,3.658,2.508l-4.07,8.456h0.895c2.74,0,10.349-0.17,13.238-0.594l-1.104,2.294
			c-1.815-0.297-8.554-0.425-10.567-0.425c-1.062,0-2.109,0.085-3.213,0.17l-5.563,11.559c0.706,0.042,1.378,0.042,2.049,0.042
			c3.41,0,14.667-0.213,18.309-0.807L29.328,45H0L13.641,16.656z"/>
		<path class="st1" d="M49.658,16.659l-3.484,20.555l15.142-20.555h2.739l-18.728,25.47h-9.034l3.69-25.47H49.658z"/>
		<path class="st1" d="M78.662,16.262c14.047,0,13.619,1.39,8.543,13.108c-5.27,12.164-6.166,13.157-20.097,13.157
			c-1.341,0-2.681,0-4-0.05c-7.164-0.149-9.02-0.844-6.987-7.15c0.599-1.787,1.315-3.575,2.089-5.362
			C63.523,17.702,63.973,16.262,78.662,16.262z M66.953,41.136c0.933,0,1.908-0.099,2.847-0.248c1.82-0.298,3.496-1.34,4.236-2.781
			c2.006-3.823,3.858-7.695,5.515-11.519c1.333-3.078,4.28-8.937-0.849-8.937c-0.933,0-1.909,0.1-2.848,0.249
			c-2.074,0.347-3.256,1.191-4.235,2.78c-1.354,2.185-4.064,8.441-5.183,11.022C65.102,34.781,61.765,41.136,66.953,41.136z"/>
		<path class="st1" d="M107.556,9.013L93.209,42.129h-8.976L98.58,9.013H107.556z"/>
		<path class="st1" d="M106.844,16.659h8.976l-8.775,20.257c-1.634,3.773,5.811,3.674,8.725,3.674c1.166,0,2.353-0.049,3.599-0.1
			l0.559-1.29c-0.371,0.05-0.742,0.099-1.034,0.099c-1.632,0-3.021-0.695-2.354-2.234l8.84-20.406h8.976L123.45,41.831
			c-4.538,0.249-9.118,0.596-13.548,0.596c-4.546,0-14.286,0.149-11.834-5.511L106.844,16.659z"/>
		<path class="st1" d="M138.949,12.637h8.976l-1.743,4.022h5.362l-0.709,1.638c-0.233,0-0.445-0.05-0.62-0.05
			c-3.439,0-5.152,0.993-6.442,3.972l-8.625,19.91h-8.976L138.949,12.637z"/>
		<path class="st1" d="M152.767,16.659h8.918l-11.034,25.47h-8.918L152.767,16.659z M160.083,8.517c2.157,0,5.958-0.298,4.818,2.333
			c-0.409,0.944-1.878,3.526-3.283,3.675c-1.66,0.198-3.334,0.298-4.909,0.298c-3.438,0-3.162-1.043-2.043-3.625
			C155.893,8.368,157.052,8.517,160.083,8.517z"/>
		<path class="st1" d="M178.806,16.262c14.047,0,13.619,1.39,8.543,13.108c-5.27,12.164-6.166,13.157-20.097,13.157
			c-1.341,0-2.681,0-4-0.05c-7.164-0.149-9.02-0.844-6.987-7.15c0.599-1.787,1.315-3.575,2.089-5.362
			C163.667,17.702,164.117,16.262,178.806,16.262z M167.097,41.136c0.933,0,1.908-0.099,2.847-0.248
			c1.82-0.298,3.496-1.34,4.236-2.781c2.006-3.823,3.858-7.695,5.515-11.519c1.333-3.078,4.28-8.937-0.849-8.937
			c-0.933,0-1.909,0.1-2.848,0.249c-2.074,0.347-3.256,1.191-4.235,2.78c-1.354,2.185-4.064,8.441-5.183,11.022
			C165.246,34.781,161.909,41.136,167.097,41.136z"/>
		<path class="st1" d="M195.267,16.957c4.528-0.497,9.176-0.596,13.548-0.596c4.546,0,14.286-0.149,11.834,5.511l-8.776,20.257
			h-8.976l8.776-20.257c1.613-3.723-5.615-3.723-8.529-3.723c-1.224,0-2.528,0.049-3.832,0.098l-0.559,1.292
			c0.291,0,0.546-0.051,0.838-0.051c1.633,0,3.319,0.547,2.587,2.234l-8.84,20.406h-8.976L195.267,16.957z"/>
	</g>
</g>
</svg>
